<svg width="20" height="20" viewBox="0 0 20 20" fill="none" xmlns="http://www.w3.org/2000/svg">
<g clip-path="url(#clip0_1224_24232)">
<path d="M6.11582 8.40416L9.99996 4.52L13.8859 8.40584L16.1459 6.14584L9.99996 0L3.85598 6.144L6.1159 8.404L6.11582 8.40416ZM0 10L2.26007 7.7396L4.51998 9.99952L2.25991 12.2596L0 10ZM6.11582 11.5961L9.99996 15.48L13.8859 11.5942L16.1471 13.853L16.1459 13.8542L9.99996 20L3.85598 13.856L3.85278 13.8528L6.11606 11.5958L6.11582 11.5961ZM15.4799 10.001L17.74 7.74088L19.9999 10.0008L17.7399 12.2609L15.4799 10.001Z" fill="#FFBC00"/>
<path d="M12.2922 9.99841H12.2931L10 7.70508L8.30508 9.3996L8.11036 9.5944L7.70877 9.99609L7.70557 9.99921L7.70877 10.0025L10 12.2941L12.2933 10.0008L12.2944 9.99953L12.2923 9.99841" fill="#FFBC00"/>
</g>
<defs>
<clipPath id="clip0_1224_24232">
<rect width="20" height="20" fill="white"/>
</clipPath>
</defs>
</svg>
