<svg width="24" height="24" viewBox="0 0 24 24" fill="none" xmlns="http://www.w3.org/2000/svg">
<path fill-rule="evenodd" clip-rule="evenodd" d="M11.5035 1.65187C12.5029 1.62841 13.5435 1.88259 14.3696 2.46165L20.3011 6.62328L20.3022 6.62404C20.9018 7.04285 21.4051 7.68675 21.7574 8.36243C22.1098 9.03861 22.3499 9.82125 22.3499 10.5548V17.5532C22.3499 20.186 20.2018 22.3504 17.5583 22.3504H6.4415C3.79681 22.3504 1.6499 20.1848 1.6499 17.5436V10.4203C1.6499 9.73185 1.86689 8.9883 2.1848 8.33946C2.50274 7.69058 2.95788 7.06239 3.50332 6.63739L8.67772 2.59986C9.47547 1.97854 10.5041 1.67534 11.5035 1.65187ZM9.59995 3.78286L4.42608 7.81998C4.10776 8.0679 3.78016 8.49257 3.5318 8.99946C3.28331 9.50661 3.1499 10.0224 3.1499 10.4203V17.5436C3.1499 19.363 4.6318 20.8504 6.4415 20.8504H17.5583C19.3692 20.8504 20.8499 19.3618 20.8499 17.5532V10.5548C20.8499 10.1252 20.7012 9.58127 20.4272 9.0558C20.1533 8.53025 19.793 8.09784 19.4427 7.85332L19.4411 7.85226L13.5086 3.68994C12.9907 3.32703 12.2792 3.13407 11.5387 3.15146C10.7981 3.16885 10.0982 3.39479 9.59995 3.78286Z" fill="#6D7A86"/>
<path d="M11.625 18.0004C11.625 18.2075 11.7929 18.3754 12 18.3754C12.2071 18.3754 12.375 18.2075 12.375 18.0004V14.4004C12.375 14.1933 12.2071 14.0254 12 14.0254C11.7929 14.0254 11.625 14.1933 11.625 14.4004V18.0004Z" stroke="#6D7A86" stroke-width="0.75" stroke-linecap="round" stroke-linejoin="round"/>
</svg>
