<svg width="20" height="20" viewBox="0 0 20 20" fill="none" xmlns="http://www.w3.org/2000/svg">
<path d="M12.3749 3.29134V6.45801H11.1249V3.29134C11.1249 3.06634 10.9249 2.95801 10.7916 2.95801C10.7499 2.95801 10.7083 2.96634 10.6666 2.98301L4.05825 5.47467C3.61659 5.64134 3.33325 6.05801 3.33325 6.53301V7.09134C2.57492 7.65801 2.08325 8.56634 2.08325 9.59134V6.53301C2.08325 5.54134 2.69159 4.65801 3.61659 4.30801L10.2333 1.80801C10.4166 1.74134 10.6083 1.70801 10.7916 1.70801C11.6249 1.70801 12.3749 2.38301 12.3749 3.29134Z" fill="url(#paint0_linear_991_24666)"/>
<path d="M17.9167 12.0837V12.917C17.9167 13.142 17.7417 13.3253 17.5083 13.3337H16.2917C15.85 13.3337 15.45 13.0087 15.4167 12.5753C15.3917 12.317 15.4917 12.0753 15.6583 11.9087C15.8083 11.7503 16.0167 11.667 16.2417 11.667H17.5C17.7417 11.6753 17.9167 11.8587 17.9167 12.0837Z" fill="url(#paint1_linear_991_24666)"/>
<path d="M16.2333 10.7913H17.0833C17.5416 10.7913 17.9166 10.4163 17.9166 9.95801V9.59134C17.9166 7.86634 16.5083 6.45801 14.7833 6.45801H5.21659C4.50825 6.45801 3.85825 6.69134 3.33325 7.09134C2.57492 7.65801 2.08325 8.56634 2.08325 9.59134V15.1997C2.08325 16.9247 3.49159 18.333 5.21659 18.333H14.7833C16.5083 18.333 17.9166 16.9247 17.9166 15.1997V15.0413C17.9166 14.583 17.5416 14.208 17.0833 14.208H16.3583C15.5583 14.208 14.7916 13.7163 14.5833 12.9413C14.4083 12.308 14.6166 11.6997 15.0333 11.2913C15.3416 10.9747 15.7666 10.7913 16.2333 10.7913ZM11.6666 10.6247H5.83325C5.49159 10.6247 5.20825 10.3413 5.20825 9.99967C5.20825 9.65801 5.49159 9.37467 5.83325 9.37467H11.6666C12.0083 9.37467 12.2916 9.65801 12.2916 9.99967C12.2916 10.3413 12.0083 10.6247 11.6666 10.6247Z" fill="url(#paint2_linear_991_24666)"/>
<defs>
<linearGradient id="paint0_linear_991_24666" x1="2.08325" y1="1.70801" x2="18.2642" y2="11.795" gradientUnits="userSpaceOnUse">
<stop stop-color="#3AF485"/>
<stop offset="1" stop-color="#09BDBB"/>
</linearGradient>
<linearGradient id="paint1_linear_991_24666" x1="15.4128" y1="11.667" x2="19.022" y2="14.256" gradientUnits="userSpaceOnUse">
<stop stop-color="#3AF485"/>
<stop offset="1" stop-color="#09BDBB"/>
</linearGradient>
<linearGradient id="paint2_linear_991_24666" x1="2.08325" y1="6.45801" x2="26.6804" y2="22.1185" gradientUnits="userSpaceOnUse">
<stop stop-color="#3AF485"/>
<stop offset="1" stop-color="#09BDBB"/>
</linearGradient>
</defs>
</svg>
