<svg width="24" height="24" viewBox="0 0 24 24" fill="none" xmlns="http://www.w3.org/2000/svg">
<path fill-rule="evenodd" clip-rule="evenodd" d="M1.77002 11.6809C1.75694 11.626 1.75 11.5689 1.75 11.5103V7.84035C1.75 6.35035 2.68001 4.9903 4.07001 4.4703L12.01 1.4703C12.83 1.1703 13.75 1.28035 14.46 1.78035C15.17 2.28035 15.6 3.09034 15.6 3.95034V6.99023H17.76C20.25 6.99023 22.27 9.01024 22.27 11.5002V12.3674C22.8855 12.6505 23.3 13.2612 23.3 13.9702V16.0302C23.3 16.7439 22.88 17.358 22.27 17.6386V18.2202C22.25 20.7302 20.23 22.7502 17.74 22.7502H7.90907C7.06967 23.3991 6.05156 23.7502 5 23.7502C2.38 23.7502 0.25 21.6202 0.25 19.0002C0.25 17.6562 0.800886 16.4053 1.77002 15.5129V11.6809ZM7.15001 21.4302C7.53143 21.0924 7.82675 20.6744 8.01655 20.2135C8.16916 19.8333 8.25 19.4228 8.25 19.0002C8.25 17.2102 6.79 15.7502 5 15.7502C4.26 15.7502 3.56 16.0002 2.97 16.4702C2.2 17.0802 1.75 18.0102 1.75 19.0002C1.75 20.7902 3.21 22.2502 5 22.2502C5.7521 22.2502 6.48559 21.9806 7.08396 21.4952C7.10441 21.4725 7.12644 21.4509 7.15001 21.4302ZM17.74 21.2502H9.18015L9.19689 21.2189C9.4665 20.7141 9.643 20.1554 9.71427 19.5792C9.73193 19.4364 9.74312 19.2926 9.74768 19.1482C9.74923 19.099 9.75002 19.0496 9.75002 19.0002C9.75002 17.2093 8.75472 15.6473 7.28798 14.8381C6.60902 14.4635 5.82905 14.2502 5.00002 14.2502C4.40128 14.2502 3.80569 14.3661 3.25002 14.5855V11.5103C3.25002 9.85025 4.60001 8.50024 6.26001 8.50024H14.839L14.85 8.50033L14.861 8.50024H17.74C19.4 8.50024 20.75 9.85025 20.75 11.5103V12.2002H19.47C18.72 12.2002 18.02 12.4902 17.51 13.0102C16.961 13.55 16.6632 14.2739 16.6778 15.0289C16.6788 15.0847 16.6816 15.1407 16.6861 15.1967L16.6886 15.2258L16.69 15.2402C16.7179 15.5758 16.8089 15.894 16.9511 16.1847C17.0378 16.3618 17.1434 16.5287 17.2654 16.683C17.8024 17.3627 18.6563 17.8002 19.6 17.8002H20.75V18.2402C20.75 19.9002 19.4 21.2502 17.74 21.2502ZM21.52 16.2803C21.5574 16.2803 21.5941 16.2831 21.6301 16.2885C21.7301 16.255 21.81 16.1526 21.81 16.0302V13.9702C21.81 13.8202 21.69 13.7102 21.53 13.7002H19.48C19.2782 13.7002 19.0865 13.7434 18.9162 13.8259C18.7989 13.8855 18.6922 13.964 18.6 14.0602L18.59 14.0703C18.31 14.3403 18.18 14.7103 18.21 15.0903C18.27 15.7503 18.9 16.2803 19.62 16.2803H21.52ZM14.1 6.99023V3.95034C14.1 3.57034 13.92 3.23034 13.61 3.01034C13.29 2.79034 12.9 2.74032 12.54 2.87032L4.60001 5.87032C3.78001 6.18032 3.25 6.95035 3.25 7.84035V8.16024C4.05076 7.43331 5.11384 6.99023 6.28001 6.99023H14.1ZM7 12.7502H14C14.41 12.7502 14.75 12.4102 14.75 12.0002C14.75 11.5902 14.41 11.2502 14 11.2502H7C6.59 11.2502 6.25 11.5902 6.25 12.0002C6.25 12.4102 6.59 12.7502 7 12.7502ZM3.35988 20.3903C3.49988 20.6203 3.74988 20.7502 3.99988 20.7502C4.12988 20.7502 4.26988 20.7203 4.39988 20.6403L5.64988 19.8903C5.86988 19.7603 6.00988 19.5102 6.00988 19.2502V17.7502C6.00988 17.3402 5.66988 17.0002 5.25988 17.0002C4.84988 17.0002 4.50988 17.3402 4.50988 17.7502V18.8303L3.61988 19.3602C3.25988 19.5702 3.14988 20.0303 3.35988 20.3903Z" fill="#F2F4F5"/>
</svg>
