<svg width="10" height="16" viewBox="0 0 10 16" fill="none" xmlns="http://www.w3.org/2000/svg">
<path d="M5.02419 0.0871219V0.0950037C5.03207 0.134413 5.03207 0.181703 5.03207 0.228994V5.91175C5.02419 5.94328 5.00054 5.95116 4.9769 5.96693C4.81138 6.04574 4.65374 6.11668 4.48823 6.18762C4.25965 6.29008 4.0232 6.40042 3.79463 6.50289L2.96704 6.88121C2.73847 6.98367 2.5099 7.08614 2.28921 7.1886C2.02123 7.31471 1.74537 7.43294 1.47739 7.55904C1.24882 7.66151 1.02025 7.77185 0.783793 7.87431C0.59463 7.96101 0.405468 8.03983 0.224187 8.12653C0.208423 8.13441 0.19266 8.14229 0.176896 8.14229C0.169015 8.14229 0.169015 8.14229 0.161133 8.13441L0.373941 7.77973C0.783793 7.1019 1.18576 6.43195 1.59562 5.75412C2.02911 5.02899 2.47049 4.30387 2.90399 3.57875C3.30596 2.9088 3.71581 2.23885 4.11778 1.5689C4.40941 1.08023 4.70892 0.591555 5.00054 0.102885C5.00842 0.0871219 5.01631 0.0792401 5.01631 0.0634766H5.02419C5.01631 0.0713583 5.02419 0.0792401 5.02419 0.0871219Z" fill="#8A92B2"/>
<path d="M9.86299 8.13477L9.87087 8.14266L8.71225 8.82837L5.07087 10.9801C5.0551 10.988 5.03934 10.9959 5.03146 11.0037C5.00781 11.0037 5.00781 10.9801 5.00781 10.9722V10.9013V6.03034C5.00781 6.0067 5.00781 5.97517 5.01569 5.95152C5.02358 5.92 5.04722 5.92788 5.07087 5.93576C5.17333 5.98305 5.28367 6.03034 5.38614 6.07763C5.69353 6.2195 6.00092 6.36138 6.30831 6.49537C6.57629 6.61359 6.83638 6.7397 7.10436 6.85793C7.37234 6.97615 7.64033 7.10226 7.90831 7.22049C8.13688 7.32295 8.37333 7.4333 8.6019 7.53576C8.83047 7.63822 9.06693 7.74857 9.2955 7.85103C9.47678 7.92985 9.65806 8.01655 9.83934 8.09537C9.83934 8.11901 9.84722 8.12689 9.86299 8.13477Z" fill="#383C55"/>
<path d="M5.0237 15.8978C5.0237 15.9057 5.01582 15.9136 5.01582 15.9215H5.00794C5.00794 15.9057 4.99217 15.8978 4.98429 15.882C4.49562 15.1963 4.00695 14.5027 3.51828 13.817C3.02173 13.1155 2.5173 12.4062 2.02074 11.7047C1.53996 11.0269 1.05129 10.3412 0.570497 9.66333C0.444388 9.48205 0.31828 9.30865 0.192172 9.12737C0.18429 9.11161 0.176408 9.10372 0.160645 9.08008C0.18429 9.08008 0.200053 9.09584 0.207935 9.10372C0.893649 9.50569 1.57148 9.90766 2.2572 10.3096C3.04537 10.7747 3.82567 11.2397 4.61385 11.7047L5.01582 11.9412C5.03158 11.9569 5.03158 11.9727 5.03158 11.9885V15.7875C5.03158 15.8269 5.03158 15.8663 5.0237 15.8978Z" fill="#383C55"/>
<path d="M0.152832 8.15039V8.14251C0.405049 8.03217 0.649384 7.91394 0.9016 7.8036C1.22475 7.65384 1.54791 7.51197 1.87106 7.36222C2.11539 7.25187 2.36761 7.13365 2.61195 7.0233C2.97451 6.85778 3.32919 6.70015 3.69175 6.53463C3.93608 6.42429 4.18042 6.31394 4.43263 6.19571C4.60603 6.1169 4.78731 6.03808 4.96071 5.95926C4.97648 5.95138 5.00012 5.9435 5.008 5.92773C5.01589 5.92773 5.01589 5.93562 5.008 5.9435V10.9484C5.008 10.9721 5.00012 10.9957 5.01589 11.0115C5.00012 11.0351 4.98436 11.0115 4.97648 11.0036C4.90554 10.9642 4.83461 10.9248 4.76367 10.8775C3.24249 9.97897 1.71342 9.07256 0.192241 8.17404C0.184359 8.16616 0.168596 8.15828 0.152832 8.15039Z" fill="#62688F"/>
<path d="M9.84764 9.08008H9.85552C9.85552 9.09584 9.83976 9.11161 9.83188 9.12737C8.38163 11.1687 6.93138 13.218 5.48114 15.2594C5.33138 15.4722 5.17375 15.685 5.024 15.8978C5.01611 15.8899 5.01611 15.882 5.01611 15.8742V15.8269V12.0042V11.9333C5.34715 11.7362 5.6703 11.5471 6.00134 11.35C7.27818 10.5934 8.55503 9.84461 9.824 9.08796C9.83188 9.09584 9.83976 9.08796 9.84764 9.08008Z" fill="#62688F"/>
<path d="M5.01576 5.943V5.92724V5.87995V0.157781C5.01576 0.134135 5.00788 0.118372 5.02365 0.0947266C6.62365 2.75088 8.22365 5.39916 9.81576 8.05532C9.83153 8.07896 9.85517 8.11049 9.86306 8.14202C9.75271 8.10261 9.65025 8.04744 9.54778 8.00014C9.42168 7.94497 9.28769 7.88192 9.16158 7.82675C9.08276 7.78734 8.99606 7.75581 8.91724 7.7164C8.78325 7.65335 8.64926 7.59818 8.51527 7.53512C8.43645 7.50359 8.35764 7.46418 8.27882 7.42478L7.75862 7.18832C7.67192 7.14891 7.58522 7.1095 7.49064 7.0701L7.11232 6.90458C7.0335 6.87305 6.95468 6.83364 6.87586 6.79423L6.35567 6.55778C6.26897 6.51837 6.18227 6.47896 6.08768 6.43955L5.70936 6.27404C5.62266 6.23463 5.54384 6.19522 5.45714 6.15581C5.30739 6.08487 5.15764 6.01394 5 5.95088C5.02365 5.943 5.01576 5.943 5.01576 5.943Z" fill="#62688F"/>
</svg>
