<svg width="160" height="128" viewBox="0 0 160 128" fill="none" xmlns="http://www.w3.org/2000/svg">
<path fill-rule="evenodd" clip-rule="evenodd" d="M41.1838 10.127C29.2964 16.7698 19.2917 26.3502 12.1161 37.9621C4.94042 49.574 0.831039 62.8334 0.176604 76.4864C-0.421962 88.9736 1.88773 101.412 6.90142 112.819C7.67689 114.583 9.77859 115.288 11.5042 114.43C13.2203 113.577 13.9153 111.5 13.1507 109.742C8.64976 99.397 6.57935 88.1315 7.12143 76.8226C7.71896 64.3568 11.471 52.2504 18.0227 41.6482C24.5744 31.046 33.7091 22.2987 44.5628 16.2335C55.4166 10.1684 67.6305 6.98592 80.0495 6.98717C92.4684 6.98842 104.682 10.1733 115.534 16.2407C126.387 22.308 135.52 31.0572 142.069 41.6607C148.619 52.2642 152.369 64.3714 152.964 76.8372C153.503 88.1463 151.431 99.4114 146.928 109.756C146.163 111.513 146.857 113.59 148.573 114.444C150.299 115.302 152.401 114.598 153.176 112.834C158.192 101.428 160.505 88.9898 159.908 76.5025C159.257 62.8494 155.15 49.5891 147.977 37.9757C140.803 26.3624 130.801 16.78 118.914 10.1348C107.028 3.48961 93.6518 0.00136977 80.0502 4.03677e-07C66.4485 -0.00136955 53.0713 3.48418 41.1838 10.127Z" fill="#101115"/>
<path fill-rule="evenodd" clip-rule="evenodd" d="M51.1635 5.57021C40.8522 9.64104 31.4168 15.3952 23.6065 23.2879C15.7962 31.1805 9.72223 40.2051 5.73216 50.5865C1.38684 61.0526 -0.422023 73.485 0.0821276 84.6015C0.532664 94.5356 2.84874 103.824 6.84261 112.805C7.63881 114.596 9.76 115.335 11.5346 114.504C13.3594 113.649 14.1191 111.466 13.315 109.618C9.71701 101.351 7.44074 92.2259 7.03563 83.2932C6.57531 73.1434 8.63854 63.4162 12.2816 53.9376C15.9247 44.459 21.4881 35.8437 28.6193 28.6373C35.7504 21.431 44.294 15.7907 53.7087 12.0739C63.1234 8.35704 73.204 6.64461 83.312 7.04506C93.4201 7.44551 103.527 10.377 112.621 14.8271C121.715 19.2772 129.108 25.3948 135.652 33.1429C141.398 39.9464 146.094 48.0313 149.119 56.641C149.758 58.4573 151.692 59.5111 153.536 58.9591C155.374 58.409 156.427 56.4722 155.816 54.6537C152.698 45.3874 148.205 36.8775 141.736 29.218C134.569 20.732 125.436 12.9921 115.476 8.11813C105.516 3.24419 94.6569 0.501039 83.5863 0.0624459C72.5156 -0.376146 61.4749 1.49938 51.1635 5.57021Z" fill="url(#paint0_linear_980_27235)"/>
<circle cx="80" cy="37.8164" r="14" fill="#101115"/>
<path fill-rule="evenodd" clip-rule="evenodd" d="M77.9 30.0664C76.076 30.0664 74.6041 30.4266 73.6072 31.4236C72.6102 32.4205 72.25 33.8924 72.25 35.7164V39.9164C72.25 41.7404 72.6102 43.2123 73.6072 44.2092C74.6041 45.2062 76.076 45.5664 77.9 45.5664H82.1C83.924 45.5664 85.3959 45.2062 86.3928 44.2092C87.3898 43.2123 87.75 41.7404 87.75 39.9164V35.7164C87.75 33.8924 87.3898 32.4205 86.3928 31.4236C85.3959 30.4266 83.924 30.0664 82.1 30.0664H77.9ZM86.25 38.0664V35.7164C86.25 34.0404 85.9102 33.0623 85.3322 32.4842C84.7541 31.9062 83.776 31.5664 82.1 31.5664H77.9C76.224 31.5664 75.2459 31.9062 74.6678 32.4842C74.0898 33.0623 73.75 34.0404 73.75 35.7164V37.0663H77C77.0198 37.0663 77.0415 37.0661 77.0649 37.0659C77.2688 37.0642 77.5998 37.0614 77.8869 37.1692C78.313 37.3292 78.5538 37.6632 78.6989 38.0442L79.25 39.422L80.8003 35.5463C80.8481 35.4185 80.9169 35.2633 81.0217 35.1275C81.125 34.9935 81.3682 34.75 81.7595 34.7632C82.1169 34.7752 82.3393 34.9984 82.4282 35.1012C82.5324 35.2217 82.6112 35.3612 82.671 35.4812L82.6715 35.4821L83.6722 37.4838C83.7776 37.6968 83.8787 37.8758 83.9807 37.9964C84.0117 38.0329 84.0343 38.0544 84.0487 38.0664H86.25ZM73.75 38.5663L77.0598 38.5663C77.1643 38.5662 77.2333 38.5661 77.2937 38.5693L77.2982 38.5808L77.3036 38.5949L78.301 41.0883C78.3523 41.2236 78.4191 41.3779 78.5098 41.5108C78.5746 41.6057 78.8104 41.9285 79.25 41.9285C79.6896 41.9285 79.9254 41.6057 79.9902 41.5108C80.0809 41.3779 80.1477 41.2236 80.199 41.0883L81.7983 37.0901L82.3278 38.1491L82.3285 38.1505C82.44 38.3756 82.6077 38.6959 82.8356 38.9652C83.0563 39.2261 83.4423 39.5664 84 39.5664H86.25V39.9164C86.25 41.5924 85.9102 42.5705 85.3322 43.1486C84.7541 43.7266 83.776 44.0664 82.1 44.0664H77.9C76.224 44.0664 75.2459 43.7266 74.6678 43.1486C74.0898 42.5705 73.75 41.5924 73.75 39.9164V38.5663Z" fill="url(#paint1_linear_980_27235)"/>
<path d="M54.8395 69.0923H53.7315C53.6889 68.8556 53.6096 68.6473 53.4936 68.4673C53.3776 68.2874 53.2356 68.1347 53.0675 68.0092C52.8994 67.8838 52.7112 67.7891 52.5028 67.7251C52.2969 67.6612 52.0779 67.6293 51.8459 67.6293C51.4268 67.6293 51.0516 67.7346 50.7202 67.9453C50.3911 68.156 50.1307 68.465 49.9389 68.8722C49.7495 69.2794 49.6548 69.7765 49.6548 70.3636C49.6548 70.9555 49.7495 71.455 49.9389 71.8622C50.1307 72.2694 50.3923 72.5772 50.7237 72.7855C51.0552 72.9938 51.428 73.098 51.8423 73.098C52.072 73.098 52.2898 73.0672 52.4957 73.0057C52.7041 72.9418 52.8923 72.8482 53.0604 72.7251C53.2285 72.602 53.3705 72.4517 53.4865 72.2741C53.6049 72.0942 53.6866 71.8883 53.7315 71.6562L54.8395 71.6598C54.7803 72.0173 54.6655 72.3464 54.495 72.647C54.3269 72.9453 54.1103 73.2034 53.8452 73.4212C53.5824 73.6366 53.2817 73.8035 52.9432 73.9219C52.6046 74.0402 52.2353 74.0994 51.8352 74.0994C51.2055 74.0994 50.6444 73.9503 50.152 73.652C49.6596 73.3513 49.2713 72.9216 48.9872 72.3629C48.7055 71.8042 48.5646 71.1378 48.5646 70.3636C48.5646 69.5871 48.7067 68.9207 48.9908 68.3643C49.2749 67.8056 49.6631 67.3771 50.1555 67.0788C50.648 66.7782 51.2079 66.6278 51.8352 66.6278C52.2211 66.6278 52.581 66.6835 52.9148 66.7947C53.2509 66.9036 53.5528 67.0646 53.8203 67.2777C54.0878 67.4884 54.3092 67.7464 54.4844 68.0518C54.6596 68.3549 54.7779 68.7017 54.8395 69.0923ZM56.0673 74V68.5455H57.0936V69.4119H57.1504C57.2498 69.1184 57.425 68.8875 57.676 68.7195C57.9293 68.549 58.2157 68.4638 58.5353 68.4638C58.6016 68.4638 58.6797 68.4661 58.7697 68.4709C58.862 68.4756 58.9342 68.4815 58.9863 68.4886V69.5043C58.9437 69.4924 58.868 69.4794 58.7591 69.4652C58.6502 69.4486 58.5413 69.4403 58.4324 69.4403C58.1814 69.4403 57.9577 69.4936 57.7612 69.6001C57.5671 69.7043 57.4132 69.8499 57.2995 70.0369C57.1859 70.2216 57.1291 70.4323 57.1291 70.669V74H56.0673ZM62.0607 74.1101C61.5233 74.1101 61.0605 73.9953 60.6722 73.7656C60.2863 73.5336 59.988 73.2081 59.7773 72.7891C59.569 72.3677 59.4648 71.8741 59.4648 71.3082C59.4648 70.7495 59.569 70.2571 59.7773 69.831C59.988 69.4048 60.2816 69.0722 60.658 68.8331C61.0368 68.594 61.4795 68.4744 61.9862 68.4744C62.2939 68.4744 62.5922 68.5253 62.881 68.6271C63.1699 68.7289 63.4291 68.8887 63.6587 69.1065C63.8884 69.3243 64.0695 69.6072 64.2021 69.9553C64.3346 70.3009 64.4009 70.7211 64.4009 71.2159V71.5923H60.065V70.7969H63.3604C63.3604 70.5175 63.3036 70.2701 63.19 70.0547C63.0763 69.8369 62.9165 69.6652 62.7106 69.5398C62.507 69.4143 62.2679 69.3516 61.9933 69.3516C61.695 69.3516 61.4345 69.425 61.212 69.5717C60.9918 69.7161 60.8214 69.9055 60.7006 70.1399C60.5823 70.3719 60.5231 70.6241 60.5231 70.8963V71.5178C60.5231 71.8823 60.587 72.1925 60.7148 72.4482C60.8451 72.7038 61.0262 72.8991 61.2582 73.0341C61.4902 73.1667 61.7612 73.233 62.0714 73.233C62.2726 73.233 62.4561 73.2045 62.6218 73.1477C62.7875 73.0885 62.9308 73.0009 63.0515 72.8849C63.1722 72.7689 63.2646 72.6257 63.3285 72.4553L64.3335 72.6364C64.253 72.9323 64.1085 73.1915 63.9002 73.4141C63.6942 73.6342 63.435 73.8059 63.1225 73.929C62.8124 74.0497 62.4585 74.1101 62.0607 74.1101ZM67.6209 74.1065C67.1806 74.1065 66.7876 73.9941 66.4419 73.7692C66.0987 73.5419 65.8288 73.2187 65.6323 72.7997C65.4382 72.3783 65.3411 71.8729 65.3411 71.2834C65.3411 70.6939 65.4393 70.1896 65.6358 69.7706C65.8347 69.3516 66.1069 69.0308 66.4526 68.8082C66.7982 68.5857 67.19 68.4744 67.628 68.4744C67.9666 68.4744 68.2388 68.5312 68.4448 68.6449C68.6531 68.7562 68.8141 68.8864 68.9277 69.0355C69.0437 69.1847 69.1337 69.3161 69.1976 69.4297H69.2615V66.7273H70.3233V74H69.2864V73.1513H69.1976C69.1337 73.2673 69.0414 73.3999 68.9206 73.549C68.8023 73.6982 68.6389 73.8284 68.4306 73.9396C68.2222 74.0509 67.9524 74.1065 67.6209 74.1065ZM67.8553 73.201C68.1607 73.201 68.4187 73.1205 68.6294 72.9595C68.8425 72.7962 69.0035 72.5701 69.1124 72.2812C69.2237 71.9924 69.2793 71.6562 69.2793 71.2727C69.2793 70.8939 69.2248 70.5625 69.1159 70.2784C69.007 69.9943 68.8472 69.773 68.6365 69.6143C68.4258 69.4557 68.1654 69.3764 67.8553 69.3764C67.5357 69.3764 67.2694 69.4593 67.0563 69.625C66.8432 69.7907 66.6822 70.0168 66.5733 70.3033C66.4668 70.5897 66.4135 70.9129 66.4135 71.2727C66.4135 71.6373 66.468 71.9652 66.5769 72.2564C66.6858 72.5476 66.8468 72.7784 67.0598 72.9489C67.2753 73.117 67.5404 73.201 67.8553 73.201ZM71.8388 74V68.5455H72.9006V74H71.8388ZM72.375 67.7038C72.1903 67.7038 72.0317 67.6423 71.8991 67.5192C71.7689 67.3937 71.7038 67.2446 71.7038 67.0717C71.7038 66.8965 71.7689 66.7474 71.8991 66.6243C72.0317 66.4988 72.1903 66.4361 72.375 66.4361C72.5597 66.4361 72.7171 66.4988 72.8473 66.6243C72.9799 66.7474 73.0462 66.8965 73.0462 67.0717C73.0462 67.2446 72.9799 67.3937 72.8473 67.5192C72.7171 67.6423 72.5597 67.7038 72.375 67.7038ZM76.8752 68.5455V69.3977H73.8958V68.5455H76.8752ZM74.6948 67.2386H75.7566V72.3984C75.7566 72.6044 75.7873 72.7595 75.8489 72.8636C75.9105 72.9654 75.9898 73.0353 76.0868 73.0732C76.1863 73.1087 76.294 73.1264 76.41 73.1264C76.4952 73.1264 76.5698 73.1205 76.6337 73.1087C76.6976 73.0968 76.7473 73.0874 76.7828 73.0803L76.9746 73.9574C76.9131 73.9811 76.8255 74.0047 76.7118 74.0284C76.5982 74.0545 76.4561 74.0687 76.2857 74.071C76.0063 74.0758 75.7459 74.026 75.5044 73.9219C75.263 73.8177 75.0676 73.6567 74.9185 73.4389C74.7694 73.2211 74.6948 72.9477 74.6948 72.6186V67.2386ZM80.7814 74V66.7273H81.8787V69.8878H85.5044V66.7273H86.6053V74H85.5044V70.8288H81.8787V74H80.7814ZM90.4689 74.1101C89.9315 74.1101 89.4687 73.9953 89.0804 73.7656C88.6945 73.5336 88.3962 73.2081 88.1855 72.7891C87.9772 72.3677 87.873 71.8741 87.873 71.3082C87.873 70.7495 87.9772 70.2571 88.1855 69.831C88.3962 69.4048 88.6898 69.0722 89.0662 68.8331C89.445 68.594 89.8877 68.4744 90.3944 68.4744C90.7021 68.4744 91.0004 68.5253 91.2892 68.6271C91.5781 68.7289 91.8373 68.8887 92.0669 69.1065C92.2966 69.3243 92.4777 69.6072 92.6103 69.9553C92.7428 70.3009 92.8091 70.7211 92.8091 71.2159V71.5923H88.4732V70.7969H91.7686C91.7686 70.5175 91.7118 70.2701 91.5982 70.0547C91.4846 69.8369 91.3248 69.6652 91.1188 69.5398C90.9152 69.4143 90.6761 69.3516 90.4015 69.3516C90.1032 69.3516 89.8427 69.425 89.6202 69.5717C89.4 69.7161 89.2296 69.9055 89.1088 70.1399C88.9905 70.3719 88.9313 70.6241 88.9313 70.8963V71.5178C88.9313 71.8823 88.9952 72.1925 89.123 72.4482C89.2533 72.7038 89.4344 72.8991 89.6664 73.0341C89.8984 73.1667 90.1694 73.233 90.4796 73.233C90.6808 73.233 90.8643 73.2045 91.03 73.1477C91.1957 73.0885 91.339 73.0009 91.4597 72.8849C91.5804 72.7689 91.6728 72.6257 91.7367 72.4553L92.7417 72.6364C92.6612 72.9323 92.5167 73.1915 92.3084 73.4141C92.1025 73.6342 91.8432 73.8059 91.5307 73.929C91.2206 74.0497 90.8667 74.1101 90.4689 74.1101ZM95.5746 74.1207C95.2289 74.1207 94.9164 74.0568 94.6371 73.929C94.3577 73.7988 94.1364 73.6106 93.973 73.3643C93.812 73.1181 93.7315 72.8163 93.7315 72.4588C93.7315 72.151 93.7907 71.8977 93.9091 71.6989C94.0275 71.5 94.1873 71.3426 94.3885 71.2266C94.5897 71.1106 94.8146 71.023 95.0632 70.9638C95.3118 70.9046 95.5651 70.8596 95.8232 70.8288C96.1499 70.791 96.415 70.7602 96.6186 70.7365C96.8222 70.7105 96.9702 70.669 97.0625 70.6122C97.1548 70.5554 97.201 70.4631 97.201 70.3352V70.3104C97.201 70.0002 97.1134 69.7599 96.9382 69.5895C96.7654 69.419 96.5073 69.3338 96.1641 69.3338C95.8066 69.3338 95.5249 69.4131 95.3189 69.5717C95.1153 69.728 94.9744 69.902 94.8963 70.0938L93.8984 69.8665C94.0168 69.535 94.1896 69.2675 94.4169 69.0639C94.6465 68.858 94.9105 68.7088 95.2088 68.6165C95.5071 68.5218 95.8208 68.4744 96.1499 68.4744C96.3677 68.4744 96.5985 68.5005 96.8423 68.5526C97.0885 68.6023 97.3182 68.6946 97.5312 68.8295C97.7467 68.9645 97.9231 69.1574 98.0604 69.4084C98.1977 69.657 98.2663 69.9801 98.2663 70.3778V74H97.2294V73.2543H97.1868C97.1181 73.3916 97.0152 73.5265 96.8778 73.6591C96.7405 73.7917 96.5642 73.9018 96.3487 73.9893C96.1333 74.0769 95.8752 74.1207 95.5746 74.1207ZM95.8054 73.2685C96.099 73.2685 96.3499 73.2105 96.5582 73.0945C96.7689 72.9785 96.9287 72.8269 97.0376 72.6399C97.1489 72.4505 97.2045 72.2481 97.2045 72.0327V71.3295C97.1667 71.3674 97.0933 71.4029 96.9844 71.4361C96.8778 71.4669 96.7559 71.4941 96.6186 71.5178C96.4813 71.5391 96.3475 71.5592 96.2173 71.5781C96.0871 71.5947 95.9782 71.6089 95.8906 71.6207C95.6847 71.6468 95.4964 71.6906 95.326 71.7521C95.1579 71.8137 95.023 71.9025 94.9212 72.0185C94.8217 72.1321 94.772 72.2836 94.772 72.473C94.772 72.7358 94.8691 72.9347 95.0632 73.0696C95.2573 73.2022 95.5047 73.2685 95.8054 73.2685ZM100.742 66.7273V74H99.6806V66.7273H100.742ZM104.717 68.5455V69.3977H101.738V68.5455H104.717ZM102.537 67.2386H103.598V72.3984C103.598 72.6044 103.629 72.7595 103.691 72.8636C103.752 72.9654 103.832 73.0353 103.929 73.0732C104.028 73.1087 104.136 73.1264 104.252 73.1264C104.337 73.1264 104.412 73.1205 104.475 73.1087C104.539 73.0968 104.589 73.0874 104.625 73.0803L104.816 73.9574C104.755 73.9811 104.667 74.0047 104.554 74.0284C104.44 74.0545 104.298 74.0687 104.127 74.071C103.848 74.0758 103.588 74.026 103.346 73.9219C103.105 73.8177 102.909 73.6567 102.76 73.4389C102.611 73.2211 102.537 72.9477 102.537 72.6186V67.2386ZM107.07 70.7614V74H106.009V66.7273H107.056V69.4332H107.124C107.252 69.1397 107.447 68.9065 107.71 68.7337C107.972 68.5608 108.316 68.4744 108.74 68.4744C109.114 68.4744 109.44 68.5514 109.72 68.7053C110.001 68.8591 110.219 69.0888 110.373 69.3942C110.529 69.6972 110.607 70.076 110.607 70.5305V74H109.546V70.6584C109.546 70.2583 109.443 69.9482 109.237 69.728C109.031 69.5054 108.744 69.3942 108.377 69.3942C108.126 69.3942 107.901 69.4474 107.703 69.554C107.506 69.6605 107.351 69.8168 107.237 70.0227C107.126 70.2263 107.07 70.4725 107.07 70.7614Z" fill="#FEFEFE"/>
<path d="M50.9261 105.239C49.6136 105.239 48.446 105.026 47.4233 104.599C46.4063 104.168 45.608 103.58 45.0284 102.835C44.4489 102.091 44.1591 101.247 44.1591 100.304C44.1591 99.5767 44.3239 98.9091 44.6534 98.3011C44.9886 97.6875 45.4432 97.179 46.017 96.7756C46.5909 96.3665 47.233 96.1051 47.9432 95.9915V95.8722C47.0114 95.6847 46.2557 95.233 45.6761 94.517C45.0966 93.7955 44.8068 92.9574 44.8068 92.0028C44.8068 91.0994 45.071 90.2955 45.5994 89.5909C46.1278 88.8807 46.8523 88.3239 47.7727 87.9205C48.6989 87.5114 49.75 87.3068 50.9261 87.3068C52.1023 87.3068 53.1506 87.5114 54.071 87.9205C54.9972 88.3295 55.7244 88.8892 56.2528 89.5994C56.7813 90.304 57.0483 91.1051 57.054 92.0028C57.0483 92.9631 56.7528 93.8011 56.1676 94.517C55.5824 95.233 54.8324 95.6847 53.9176 95.8722V95.9915C54.6165 96.1051 55.25 96.3665 55.8182 96.7756C56.392 97.179 56.8466 97.6875 57.1818 98.3011C57.5227 98.9091 57.696 99.5767 57.7017 100.304C57.696 101.247 57.4034 102.091 56.8239 102.835C56.2443 103.58 55.4432 104.168 54.4205 104.599C53.4034 105.026 52.2386 105.239 50.9261 105.239ZM50.9261 102.528C51.5114 102.528 52.0227 102.423 52.4602 102.213C52.8977 101.997 53.2386 101.702 53.483 101.327C53.733 100.946 53.858 100.509 53.858 100.014C53.858 99.5085 53.7301 99.0625 53.4744 98.6761C53.2188 98.2841 52.8722 97.9773 52.4347 97.7557C51.9972 97.5284 51.4943 97.4148 50.9261 97.4148C50.3636 97.4148 49.8608 97.5284 49.4176 97.7557C48.9744 97.9773 48.625 98.2841 48.3693 98.6761C48.1193 99.0625 47.9943 99.5085 47.9943 100.014C47.9943 100.509 48.1165 100.946 48.3608 101.327C48.6051 101.702 48.9489 101.997 49.392 102.213C49.8352 102.423 50.3466 102.528 50.9261 102.528ZM50.9261 94.7301C51.4148 94.7301 51.8494 94.6307 52.2301 94.4318C52.6108 94.233 52.9091 93.9574 53.125 93.6051C53.3409 93.2528 53.4489 92.8466 53.4489 92.3864C53.4489 91.9318 53.3409 91.5341 53.125 91.1932C52.9091 90.8466 52.6136 90.5767 52.2386 90.3835C51.8636 90.1847 51.4261 90.0852 50.9261 90.0852C50.4318 90.0852 49.9943 90.1847 49.6136 90.3835C49.233 90.5767 48.9347 90.8466 48.7188 91.1932C48.5085 91.5341 48.4034 91.9318 48.4034 92.3864C48.4034 92.8466 48.5114 93.2528 48.7273 93.6051C48.9432 93.9574 49.2415 94.233 49.6222 94.4318C50.0028 94.6307 50.4375 94.7301 50.9261 94.7301ZM66.657 105.239C65.4524 105.239 64.3786 105.017 63.4354 104.574C62.4979 104.131 61.7536 103.52 61.2024 102.741C60.6513 101.963 60.3643 101.071 60.3416 100.065H63.9212C63.9609 100.741 64.245 101.29 64.7734 101.71C65.3018 102.131 65.9297 102.341 66.657 102.341C67.2365 102.341 67.7479 102.213 68.1911 101.957C68.6399 101.696 68.9893 101.335 69.2393 100.875C69.495 100.409 69.6229 99.875 69.6229 99.2727C69.6229 98.6591 69.4922 98.1193 69.2308 97.6534C68.9751 97.1875 68.62 96.8239 68.1655 96.5625C67.7109 96.3011 67.1911 96.1676 66.6058 96.1619C66.0945 96.1619 65.5973 96.267 65.1143 96.4773C64.6371 96.6875 64.2649 96.9744 63.9979 97.3381L60.7166 96.75L61.5433 87.5455H72.2138V90.5625H64.5859L64.1342 94.9347H64.2365C64.5433 94.5028 65.0064 94.1449 65.6257 93.8608C66.245 93.5767 66.9382 93.4347 67.7053 93.4347C68.7564 93.4347 69.6939 93.6818 70.5178 94.1761C71.3416 94.6705 71.9922 95.3494 72.4695 96.2131C72.9467 97.071 73.1825 98.0597 73.1768 99.179C73.1825 100.355 72.9098 101.401 72.3587 102.315C71.8132 103.224 71.049 103.94 70.0661 104.463C69.0888 104.98 67.9524 105.239 66.657 105.239ZM77.3445 105.222C76.782 105.222 76.299 105.023 75.8956 104.625C75.4979 104.222 75.299 103.739 75.299 103.176C75.299 102.619 75.4979 102.142 75.8956 101.744C76.299 101.347 76.782 101.148 77.3445 101.148C77.8899 101.148 78.3672 101.347 78.7763 101.744C79.1854 102.142 79.3899 102.619 79.3899 103.176C79.3899 103.551 79.2933 103.895 79.1001 104.207C78.9126 104.514 78.6655 104.761 78.3587 104.949C78.0518 105.131 77.7138 105.222 77.3445 105.222ZM88.2259 105.239C86.9531 105.239 85.8196 105.02 84.8253 104.582C83.8366 104.139 83.0554 103.531 82.4815 102.759C81.9134 101.98 81.6207 101.082 81.6037 100.065H85.3196C85.3423 100.491 85.4815 100.866 85.7372 101.19C85.9986 101.509 86.3452 101.756 86.777 101.932C87.2088 102.108 87.6946 102.196 88.2344 102.196C88.7969 102.196 89.294 102.097 89.7259 101.898C90.1577 101.699 90.4957 101.423 90.7401 101.071C90.9844 100.719 91.1065 100.312 91.1065 99.8523C91.1065 99.3864 90.9759 98.9744 90.7145 98.6165C90.4588 98.2528 90.0895 97.9687 89.6065 97.7642C89.1293 97.5597 88.5611 97.4574 87.902 97.4574H86.2741V94.7472H87.902C88.4588 94.7472 88.9503 94.6506 89.3764 94.4574C89.8082 94.2642 90.1435 93.9972 90.3821 93.6562C90.6207 93.3097 90.7401 92.9062 90.7401 92.446C90.7401 92.0085 90.6349 91.625 90.4247 91.2955C90.2202 90.9602 89.9304 90.6989 89.5554 90.5114C89.1861 90.3239 88.7543 90.2301 88.2599 90.2301C87.7599 90.2301 87.3026 90.321 86.8878 90.5028C86.473 90.679 86.1406 90.9318 85.8906 91.2614C85.6406 91.5909 85.5071 91.9773 85.4901 92.4205H81.9531C81.9702 91.4148 82.2571 90.5284 82.8139 89.7614C83.3707 88.9943 84.1207 88.3949 85.0639 87.9631C86.0128 87.5256 87.0838 87.3068 88.277 87.3068C89.4815 87.3068 90.5355 87.5256 91.4389 87.9631C92.3423 88.4006 93.044 88.9915 93.544 89.7358C94.0497 90.4744 94.2997 91.304 94.294 92.2244C94.2997 93.2017 93.9957 94.017 93.3821 94.6705C92.7741 95.3239 91.9815 95.7386 91.0043 95.9148V96.0511C92.2884 96.2159 93.2656 96.6619 93.9361 97.3892C94.6122 98.1108 94.9474 99.0142 94.9418 100.099C94.9474 101.094 94.6605 101.977 94.081 102.75C93.5071 103.523 92.7145 104.131 91.7031 104.574C90.6918 105.017 89.5327 105.239 88.2259 105.239ZM107.148 101.727V100.807C107.148 100.108 107.296 99.4659 107.592 98.8807C107.893 98.2898 108.327 97.8182 108.896 97.4659C109.469 97.108 110.168 96.929 110.992 96.929C111.827 96.929 112.529 97.1051 113.097 97.4574C113.671 97.8097 114.103 98.2812 114.393 98.8722C114.688 99.4574 114.836 100.102 114.836 100.807V101.727C114.836 102.426 114.688 103.071 114.393 103.662C114.097 104.247 113.663 104.716 113.089 105.068C112.515 105.426 111.816 105.605 110.992 105.605C110.157 105.605 109.455 105.426 108.887 105.068C108.319 104.716 107.887 104.247 107.592 103.662C107.296 103.071 107.148 102.426 107.148 101.727ZM109.629 100.807V101.727C109.629 102.131 109.725 102.511 109.918 102.869C110.117 103.227 110.475 103.406 110.992 103.406C111.509 103.406 111.862 103.23 112.049 102.878C112.242 102.526 112.339 102.142 112.339 101.727V100.807C112.339 100.392 112.248 100.006 112.066 99.6477C111.884 99.2898 111.526 99.1108 110.992 99.1108C110.481 99.1108 110.126 99.2898 109.927 99.6477C109.728 100.006 109.629 100.392 109.629 100.807ZM98.1911 91.7386V90.8182C98.1911 90.1136 98.3416 89.4687 98.6428 88.8835C98.9439 88.2926 99.3786 87.821 99.9467 87.4688C100.521 87.1165 101.214 86.9403 102.026 86.9403C102.867 86.9403 103.572 87.1165 104.14 87.4688C104.708 87.821 105.14 88.2926 105.435 88.8835C105.731 89.4687 105.879 90.1136 105.879 90.8182V91.7386C105.879 92.4432 105.728 93.0881 105.427 93.6733C105.131 94.2585 104.697 94.7273 104.123 95.0795C103.555 95.4261 102.856 95.5994 102.026 95.5994C101.197 95.5994 100.495 95.4233 99.9212 95.071C99.353 94.7131 98.9212 94.2443 98.6257 93.6648C98.3359 93.0795 98.1911 92.4375 98.1911 91.7386ZM100.688 90.8182V91.7386C100.688 92.1534 100.785 92.5369 100.978 92.8892C101.177 93.2415 101.526 93.4176 102.026 93.4176C102.549 93.4176 102.904 93.2415 103.092 92.8892C103.285 92.5369 103.381 92.1534 103.381 91.7386V90.8182C103.381 90.4034 103.29 90.017 103.109 89.6591C102.927 89.3011 102.566 89.1222 102.026 89.1222C101.521 89.1222 101.171 89.304 100.978 89.6676C100.785 90.0312 100.688 90.4148 100.688 90.8182ZM99.3161 105L111.316 87.5455H113.549L101.549 105H99.3161Z" fill="#FEFEFE"/>
<path d="M72.7209 121.025C72.6522 120.809 72.5599 120.616 72.4439 120.446C72.3303 120.273 72.1941 120.126 72.0355 120.006C71.8769 119.883 71.6958 119.789 71.4922 119.725C71.291 119.661 71.0696 119.629 70.8281 119.629C70.4186 119.629 70.0492 119.735 69.7202 119.945C69.3911 120.156 69.1307 120.465 68.9389 120.872C68.7495 121.277 68.6548 121.773 68.6548 122.36C68.6548 122.95 68.7507 123.448 68.9425 123.855C69.1342 124.262 69.397 124.571 69.7308 124.782C70.0646 124.993 70.4446 125.098 70.8707 125.098C71.2661 125.098 71.6106 125.018 71.9041 124.857C72.2 124.696 72.4285 124.468 72.5895 124.175C72.7528 123.879 72.8345 123.531 72.8345 123.131L73.1186 123.184H71.0376V122.278H73.8963V123.106C73.8963 123.717 73.7661 124.247 73.5057 124.697C73.2476 125.144 72.8902 125.49 72.4332 125.734C71.9787 125.978 71.4579 126.099 70.8707 126.099C70.2126 126.099 69.6349 125.948 69.1378 125.645C68.643 125.342 68.2571 124.912 67.9801 124.356C67.7031 123.797 67.5646 123.134 67.5646 122.367C67.5646 121.787 67.6451 121.266 67.8061 120.805C67.9671 120.343 68.1932 119.951 68.4844 119.629C68.7779 119.305 69.1224 119.058 69.5178 118.887C69.9155 118.714 70.3499 118.628 70.821 118.628C71.214 118.628 71.5798 118.686 71.9183 118.802C72.2592 118.918 72.5623 119.082 72.8274 119.295C73.0949 119.509 73.3163 119.762 73.4915 120.055C73.6667 120.347 73.785 120.67 73.8466 121.025H72.7209ZM77.5016 126.11C76.9902 126.11 76.544 125.993 76.1628 125.759C75.7817 125.524 75.4857 125.196 75.275 124.775C75.0643 124.353 74.959 123.861 74.959 123.298C74.959 122.732 75.0643 122.237 75.275 121.813C75.4857 121.389 75.7817 121.06 76.1628 120.826C76.544 120.592 76.9902 120.474 77.5016 120.474C78.013 120.474 78.4592 120.592 78.8404 120.826C79.2215 121.06 79.5175 121.389 79.7282 121.813C79.9389 122.237 80.0442 122.732 80.0442 123.298C80.0442 123.861 79.9389 124.353 79.7282 124.775C79.5175 125.196 79.2215 125.524 78.8404 125.759C78.4592 125.993 78.013 126.11 77.5016 126.11ZM77.5051 125.219C77.8366 125.219 78.1112 125.131 78.329 124.956C78.5468 124.781 78.7078 124.548 78.812 124.256C78.9185 123.965 78.9718 123.644 78.9718 123.294C78.9718 122.946 78.9185 122.626 78.812 122.335C78.7078 122.042 78.5468 121.806 78.329 121.629C78.1112 121.451 77.8366 121.362 77.5051 121.362C77.1713 121.362 76.8944 121.451 76.6742 121.629C76.4564 121.806 76.2942 122.042 76.1877 122.335C76.0835 122.626 76.0314 122.946 76.0314 123.294C76.0314 123.644 76.0835 123.965 76.1877 124.256C76.2942 124.548 76.4564 124.781 76.6742 124.956C76.8944 125.131 77.1713 125.219 77.5051 125.219ZM83.527 126.11C83.0156 126.11 82.5694 125.993 82.1882 125.759C81.8071 125.524 81.5111 125.196 81.3004 124.775C81.0897 124.353 80.9844 123.861 80.9844 123.298C80.9844 122.732 81.0897 122.237 81.3004 121.813C81.5111 121.389 81.8071 121.06 82.1882 120.826C82.5694 120.592 83.0156 120.474 83.527 120.474C84.0384 120.474 84.4846 120.592 84.8658 120.826C85.2469 121.06 85.5429 121.389 85.7536 121.813C85.9643 122.237 86.0696 122.732 86.0696 123.298C86.0696 123.861 85.9643 124.353 85.7536 124.775C85.5429 125.196 85.2469 125.524 84.8658 125.759C84.4846 125.993 84.0384 126.11 83.527 126.11ZM83.5305 125.219C83.862 125.219 84.1366 125.131 84.3544 124.956C84.5722 124.781 84.7332 124.548 84.8374 124.256C84.9439 123.965 84.9972 123.644 84.9972 123.294C84.9972 122.946 84.9439 122.626 84.8374 122.335C84.7332 122.042 84.5722 121.806 84.3544 121.629C84.1366 121.451 83.862 121.362 83.5305 121.362C83.1967 121.362 82.9197 121.451 82.6996 121.629C82.4818 121.806 82.3196 122.042 82.2131 122.335C82.1089 122.626 82.0568 122.946 82.0568 123.294C82.0568 123.644 82.1089 123.965 82.2131 124.256C82.3196 124.548 82.4818 124.781 82.6996 124.956C82.9197 125.131 83.1967 125.219 83.5305 125.219ZM89.2967 126.107C88.8564 126.107 88.4634 125.994 88.1177 125.769C87.7744 125.542 87.5046 125.219 87.3081 124.8C87.1139 124.378 87.0169 123.873 87.0169 123.283C87.0169 122.694 87.1151 122.19 87.3116 121.771C87.5105 121.352 87.7827 121.031 88.1284 120.808C88.474 120.586 88.8658 120.474 89.3038 120.474C89.6423 120.474 89.9146 120.531 90.1206 120.645C90.3289 120.756 90.4899 120.886 90.6035 121.036C90.7195 121.185 90.8095 121.316 90.8734 121.43H90.9373V118.727H91.9991V126H90.9622V125.151H90.8734C90.8095 125.267 90.7172 125.4 90.5964 125.549C90.478 125.698 90.3147 125.828 90.1064 125.94C89.898 126.051 89.6281 126.107 89.2967 126.107ZM89.5311 125.201C89.8365 125.201 90.0945 125.121 90.3052 124.96C90.5183 124.796 90.6793 124.57 90.7882 124.281C90.8994 123.992 90.9551 123.656 90.9551 123.273C90.9551 122.894 90.9006 122.562 90.7917 122.278C90.6828 121.994 90.523 121.773 90.3123 121.614C90.1016 121.456 89.8412 121.376 89.5311 121.376C89.2115 121.376 88.9451 121.459 88.7321 121.625C88.519 121.791 88.358 122.017 88.2491 122.303C88.1426 122.59 88.0893 122.913 88.0893 123.273C88.0893 123.637 88.1438 123.965 88.2527 124.256C88.3616 124.548 88.5225 124.778 88.7356 124.949C88.9511 125.117 89.2162 125.201 89.5311 125.201Z" fill="url(#paint2_linear_980_27235)"/>
<path d="M141.767 120.182V126H140.886V121.062H140.852L139.46 121.972V121.131L140.912 120.182H141.767ZM145.366 126.097C144.918 126.095 144.534 125.976 144.216 125.741C143.898 125.507 143.654 125.165 143.486 124.716C143.317 124.267 143.233 123.726 143.233 123.094C143.233 122.463 143.317 121.924 143.486 121.477C143.656 121.03 143.901 120.689 144.219 120.455C144.539 120.22 144.921 120.102 145.366 120.102C145.812 120.102 146.193 120.221 146.511 120.457C146.83 120.692 147.073 121.033 147.241 121.48C147.412 121.925 147.497 122.463 147.497 123.094C147.497 123.728 147.413 124.27 147.244 124.719C147.076 125.166 146.832 125.508 146.514 125.744C146.196 125.979 145.813 126.097 145.366 126.097ZM145.366 125.338C145.76 125.338 146.068 125.146 146.29 124.761C146.513 124.377 146.625 123.821 146.625 123.094C146.625 122.611 146.574 122.203 146.472 121.869C146.371 121.534 146.226 121.28 146.037 121.108C145.849 120.934 145.626 120.847 145.366 120.847C144.974 120.847 144.667 121.04 144.443 121.426C144.22 121.812 144.107 122.368 144.105 123.094C144.105 123.579 144.155 123.989 144.256 124.324C144.358 124.657 144.503 124.91 144.69 125.082C144.878 125.253 145.103 125.338 145.366 125.338ZM150.531 126.097C150.082 126.095 149.698 125.976 149.38 125.741C149.062 125.507 148.818 125.165 148.65 124.716C148.481 124.267 148.397 123.726 148.397 123.094C148.397 122.463 148.481 121.924 148.65 121.477C148.82 121.03 149.065 120.689 149.383 120.455C149.703 120.22 150.085 120.102 150.531 120.102C150.976 120.102 151.357 120.221 151.675 120.457C151.994 120.692 152.237 121.033 152.406 121.48C152.576 121.925 152.661 122.463 152.661 123.094C152.661 123.728 152.577 124.27 152.408 124.719C152.24 125.166 151.996 125.508 151.678 125.744C151.36 125.979 150.978 126.097 150.531 126.097ZM150.531 125.338C150.924 125.338 151.232 125.146 151.454 124.761C151.677 124.377 151.789 123.821 151.789 123.094C151.789 122.611 151.738 122.203 151.636 121.869C151.535 121.534 151.39 121.28 151.201 121.108C151.013 120.934 150.79 120.847 150.531 120.847C150.138 120.847 149.831 121.04 149.607 121.426C149.384 121.812 149.271 122.368 149.269 123.094C149.269 123.579 149.319 123.989 149.42 124.324C149.522 124.657 149.667 124.91 149.854 125.082C150.042 125.253 150.267 125.338 150.531 125.338ZM156.706 124.909V124.602C156.706 124.383 156.751 124.182 156.842 124C156.935 123.816 157.07 123.67 157.246 123.56C157.424 123.448 157.639 123.392 157.891 123.392C158.148 123.392 158.364 123.447 158.538 123.557C158.713 123.667 158.844 123.813 158.933 123.997C159.024 124.181 159.07 124.383 159.07 124.602V124.909C159.07 125.129 159.024 125.33 158.933 125.514C158.842 125.696 158.709 125.843 158.533 125.955C158.358 126.064 158.144 126.119 157.891 126.119C157.635 126.119 157.419 126.064 157.243 125.955C157.067 125.843 156.933 125.696 156.842 125.514C156.751 125.33 156.706 125.129 156.706 124.909ZM157.368 124.602V124.909C157.368 125.072 157.407 125.22 157.484 125.352C157.562 125.485 157.697 125.551 157.891 125.551C158.082 125.551 158.215 125.485 158.291 125.352C158.367 125.22 158.405 125.072 158.405 124.909V124.602C158.405 124.439 158.368 124.292 158.294 124.159C158.222 124.027 158.088 123.96 157.891 123.96C157.701 123.96 157.567 124.027 157.487 124.159C157.408 124.292 157.368 124.439 157.368 124.602ZM153.78 121.58V121.273C153.78 121.053 153.825 120.851 153.916 120.668C154.009 120.484 154.143 120.337 154.32 120.227C154.498 120.117 154.713 120.062 154.964 120.062C155.222 120.062 155.438 120.117 155.612 120.227C155.786 120.337 155.918 120.484 156.007 120.668C156.096 120.851 156.141 121.053 156.141 121.273V121.58C156.141 121.799 156.095 122.001 156.004 122.185C155.915 122.366 155.783 122.513 155.607 122.625C155.432 122.735 155.218 122.79 154.964 122.79C154.707 122.79 154.49 122.735 154.314 122.625C154.14 122.513 154.007 122.366 153.916 122.185C153.825 122.001 153.78 121.799 153.78 121.58ZM154.445 121.273V121.58C154.445 121.742 154.482 121.89 154.558 122.023C154.636 122.155 154.771 122.222 154.964 122.222C155.154 122.222 155.286 122.155 155.362 122.023C155.44 121.89 155.479 121.742 155.479 121.58V121.273C155.479 121.11 155.442 120.962 155.368 120.83C155.294 120.697 155.16 120.631 154.964 120.631C154.775 120.631 154.641 120.697 154.561 120.83C154.483 120.962 154.445 121.11 154.445 121.273ZM154.05 126L158.05 120.182H158.729L154.729 126H154.05Z" fill="#6D7A86"/>
<path d="M7.58523 126.097C7.13636 126.095 6.75284 125.976 6.43466 125.741C6.11648 125.507 5.87311 125.165 5.70455 124.716C5.53598 124.267 5.4517 123.726 5.4517 123.094C5.4517 122.463 5.53598 121.924 5.70455 121.477C5.875 121.03 6.11932 120.689 6.4375 120.455C6.75758 120.22 7.14015 120.102 7.58523 120.102C8.0303 120.102 8.41193 120.221 8.73011 120.457C9.0483 120.692 9.29167 121.033 9.46023 121.48C9.63068 121.925 9.71591 122.463 9.71591 123.094C9.71591 123.728 9.63163 124.27 9.46307 124.719C9.29451 125.166 9.05114 125.508 8.73295 125.744C8.41477 125.979 8.0322 126.097 7.58523 126.097ZM7.58523 125.338C7.97917 125.338 8.28693 125.146 8.50852 124.761C8.73201 124.377 8.84375 123.821 8.84375 123.094C8.84375 122.611 8.79261 122.203 8.69034 121.869C8.58996 121.534 8.44508 121.28 8.25568 121.108C8.06818 120.934 7.8447 120.847 7.58523 120.847C7.19318 120.847 6.88542 121.04 6.66193 121.426C6.43845 121.812 6.32576 122.368 6.32386 123.094C6.32386 123.579 6.37405 123.989 6.47443 124.324C6.5767 124.657 6.72159 124.91 6.90909 125.082C7.09659 125.253 7.32197 125.338 7.58523 125.338ZM13.7607 124.909V124.602C13.7607 124.383 13.8061 124.182 13.897 124C13.9898 123.816 14.1243 123.67 14.3004 123.56C14.4785 123.448 14.6934 123.392 14.9453 123.392C15.2029 123.392 15.4188 123.447 15.593 123.557C15.7673 123.667 15.8989 123.813 15.9879 123.997C16.0788 124.181 16.1243 124.383 16.1243 124.602V124.909C16.1243 125.129 16.0788 125.33 15.9879 125.514C15.897 125.696 15.7635 125.843 15.5874 125.955C15.4131 126.064 15.1991 126.119 14.9453 126.119C14.6896 126.119 14.4737 126.064 14.2976 125.955C14.1214 125.843 13.9879 125.696 13.897 125.514C13.8061 125.33 13.7607 125.129 13.7607 124.909ZM14.4226 124.602V124.909C14.4226 125.072 14.4614 125.22 14.5391 125.352C14.6167 125.485 14.7521 125.551 14.9453 125.551C15.1366 125.551 15.2701 125.485 15.3459 125.352C15.4216 125.22 15.4595 125.072 15.4595 124.909V124.602C15.4595 124.439 15.4226 124.292 15.3487 124.159C15.2768 124.027 15.1423 123.96 14.9453 123.96C14.7559 123.96 14.6214 124.027 14.5419 124.159C14.4624 124.292 14.4226 124.439 14.4226 124.602ZM10.8345 121.58V121.273C10.8345 121.053 10.88 120.851 10.9709 120.668C11.0637 120.484 11.1982 120.337 11.3743 120.227C11.5523 120.117 11.7673 120.062 12.0192 120.062C12.2768 120.062 12.4927 120.117 12.6669 120.227C12.8411 120.337 12.9728 120.484 13.0618 120.668C13.1508 120.851 13.1953 121.053 13.1953 121.273V121.58C13.1953 121.799 13.1499 122.001 13.0589 122.185C12.9699 122.366 12.8374 122.513 12.6612 122.625C12.487 122.735 12.273 122.79 12.0192 122.79C11.7616 122.79 11.5447 122.735 11.3686 122.625C11.1944 122.513 11.0618 122.366 10.9709 122.185C10.88 122.001 10.8345 121.799 10.8345 121.58ZM11.4993 121.273V121.58C11.4993 121.742 11.5372 121.89 11.6129 122.023C11.6906 122.155 11.826 122.222 12.0192 122.222C12.2086 122.222 12.3411 122.155 12.4169 122.023C12.4946 121.89 12.5334 121.742 12.5334 121.58V121.273C12.5334 121.11 12.4964 120.962 12.4226 120.83C12.3487 120.697 12.2143 120.631 12.0192 120.631C11.8298 120.631 11.6953 120.697 11.6158 120.83C11.5381 120.962 11.4993 121.11 11.4993 121.273ZM11.1044 126L15.1044 120.182H15.7834L11.7834 126H11.1044Z" fill="#6D7A86"/>
<defs>
<linearGradient id="paint0_linear_980_27235" x1="16.612" y1="4.83333" x2="137.918" y2="-13.7384" gradientUnits="userSpaceOnUse">
<stop stop-color="#7C3FFE"/>
<stop offset="1" stop-color="#02A4FE"/>
</linearGradient>
<linearGradient id="paint1_linear_980_27235" x1="56.3086" y1="36.0169" x2="77.6014" y2="56.1117" gradientUnits="userSpaceOnUse">
<stop stop-color="#FD371F"/>
<stop offset="1" stop-color="#FF844B"/>
</linearGradient>
<linearGradient id="paint2_linear_980_27235" x1="67" y1="116" x2="94.4168" y2="144.366" gradientUnits="userSpaceOnUse">
<stop stop-color="#3AF485"/>
<stop offset="1" stop-color="#09BDBB"/>
</linearGradient>
</defs>
</svg>
