<svg width="16" height="16" viewBox="0 0 16 16" fill="none" xmlns="http://www.w3.org/2000/svg">
<mask id="mask0_2286_949" style="mask-type:alpha" maskUnits="userSpaceOnUse" x="0" y="0" width="16" height="16">
<path d="M0 0H16V16H0V0Z" fill="white"/>
</mask>
<g mask="url(#mask0_2286_949)">
<path fill-rule="evenodd" clip-rule="evenodd" d="M8 0C12.4184 0 16 3.58164 16 8C16 12.418 12.4184 16 8 16C3.58164 16 0 12.418 0 8C0 3.58164 3.58164 0 8 0Z" fill="#2775CA"/>
</g>
<path fill-rule="evenodd" clip-rule="evenodd" d="M6.50044 13.5622C6.50044 13.7504 6.35308 13.8573 6.17108 13.8005C3.75226 13.0288 1.99854 10.7607 1.99854 8.08454C1.99854 5.40845 3.75226 3.14027 6.17108 2.36863C6.35308 2.31218 6.50044 2.41872 6.50044 2.60691V3.07145C6.50044 3.19672 6.40335 3.34418 6.28399 3.385C4.37026 4.08772 2.99935 5.92618 2.99935 8.08136C2.99935 10.2365 4.37026 12.0754 6.28399 12.7777C6.40335 12.8217 6.50044 12.9659 6.50044 13.0916V13.5622Z" fill="white"/>
<path fill-rule="evenodd" clip-rule="evenodd" d="M8.49872 11.8335C8.49872 11.9717 8.38581 12.0846 8.24781 12.0846H7.7489C7.6109 12.0846 7.49799 11.9717 7.49799 11.8335V11.043C6.40617 10.8957 5.87299 10.2838 5.72863 9.45249C5.70345 9.31113 5.81635 9.18258 5.96072 9.18258H6.53172C6.6509 9.18258 6.75135 9.2674 6.77645 9.3864C6.88317 9.88213 7.16863 10.2618 8.04381 10.2618C8.69008 10.2618 9.14826 9.90094 9.14826 9.36158C9.14826 8.82176 8.87835 8.61794 7.9309 8.46094C6.53172 8.27276 5.86981 7.84913 5.86981 6.75113C5.86981 5.90413 6.5099 5.2454 7.50117 5.10413V4.32922C7.50117 4.19113 7.61417 4.07812 7.75208 4.07812H8.25099C8.38899 4.07812 8.5019 4.19113 8.5019 4.32922V5.12613C9.30817 5.27067 9.81954 5.7284 9.9859 6.48758C10.0172 6.63213 9.90426 6.76676 9.7569 6.76676H9.22972C9.11681 6.76676 9.02272 6.6914 8.98826 6.58167C8.84708 6.09876 8.5019 5.89176 7.90263 5.89176C7.24072 5.89176 6.89872 6.21167 6.89872 6.66022C6.89872 7.13394 7.09335 7.37222 8.1099 7.51994C9.48381 7.70813 10.193 8.10022 10.193 9.27067C10.193 10.1584 9.53408 10.8769 8.5019 11.043V11.8335H8.49872Z" fill="white"/>
<path fill-rule="evenodd" clip-rule="evenodd" d="M9.82888 13.8003C9.64706 13.8572 9.49951 13.7502 9.49951 13.5621V13.0979C9.49951 12.9598 9.58424 12.8312 9.71597 12.784C11.6297 12.0812 13.0006 10.2428 13.0006 8.08761C13.0006 5.93242 11.6297 4.09397 9.71597 3.39124C9.59678 3.34724 9.49951 3.20306 9.49951 3.07733V2.61315C9.49951 2.42497 9.64706 2.31524 9.82888 2.37452C12.2477 3.14661 14.0014 5.4147 14.0014 8.09079C13.9984 10.7605 12.2477 13.0255 9.82888 13.8003Z" fill="white"/>
</svg>
