<svg width="12" height="12" viewBox="0 0 12 12" fill="none" xmlns="http://www.w3.org/2000/svg">
<mask id="mask0_2468_4016" style="mask-type:alpha" maskUnits="userSpaceOnUse" x="0" y="0" width="12" height="12">
<path d="M1.52588e-05 0H12V12H1.52588e-05V0Z" fill="white"/>
</mask>
<g mask="url(#mask0_2468_4016)">
<path fill-rule="evenodd" clip-rule="evenodd" d="M6.00002 0C9.31379 0 12 2.68623 12 6C12 9.3135 9.31379 12 6.00002 12C2.68624 12 1.52588e-05 9.3135 1.52588e-05 6C1.52588e-05 2.68623 2.68624 0 6.00002 0Z" fill="#2775CA"/>
</g>
<path fill-rule="evenodd" clip-rule="evenodd" d="M4.87527 10.1711C4.87527 10.3123 4.76475 10.3925 4.62825 10.3498C2.81414 9.77112 1.49884 8.07005 1.49884 6.06292C1.49884 4.05585 2.81414 2.35471 4.62825 1.77599C4.76475 1.73365 4.87527 1.81355 4.87527 1.95469V2.3031C4.87527 2.39705 4.80245 2.50765 4.71293 2.53826C3.27764 3.0653 2.24945 4.44415 2.24945 6.06053C2.24945 7.67692 3.27764 9.05603 4.71293 9.5828C4.80245 9.6158 4.87527 9.72394 4.87527 9.81824V10.1711Z" fill="white"/>
<path fill-rule="evenodd" clip-rule="evenodd" d="M6.37408 8.87512C6.37408 8.97875 6.2894 9.06344 6.1859 9.06344H5.81172C5.70822 9.06344 5.62354 8.97875 5.62354 8.87512V8.28228C4.80467 8.17175 4.40479 7.71282 4.29652 7.08937C4.27763 6.98334 4.36231 6.88694 4.47058 6.88694H4.89883C4.98822 6.88694 5.06356 6.95055 5.08238 7.0398C5.16243 7.41159 5.37652 7.69632 6.0329 7.69632C6.51761 7.69632 6.86124 7.42571 6.86124 7.02119C6.86124 6.61632 6.65881 6.46346 5.94822 6.34571C4.89883 6.20457 4.4024 5.88684 4.4024 5.06334C4.4024 4.42809 4.88247 3.93405 5.62593 3.82809V3.24691C5.62593 3.14334 5.71068 3.05859 5.81411 3.05859H6.18829C6.29179 3.05859 6.37647 3.14334 6.37647 3.24691V3.84459C6.98118 3.953 7.3647 4.2963 7.48947 4.86568C7.51292 4.97409 7.42824 5.07507 7.31772 5.07507H6.92233C6.83765 5.07507 6.76708 5.01855 6.74124 4.93625C6.63536 4.57407 6.37647 4.41882 5.92702 4.41882C5.43058 4.41882 5.17408 4.65875 5.17408 4.99516C5.17408 5.35046 5.32006 5.52916 6.08247 5.63996C7.1129 5.78109 7.64479 6.07516 7.64479 6.953C7.64479 7.6188 7.15061 8.15764 6.37647 8.28228V8.87512H6.37408Z" fill="white"/>
<path fill-rule="evenodd" clip-rule="evenodd" d="M7.37178 10.35C7.23541 10.3926 7.12476 10.3124 7.12476 10.1713V9.82317C7.12476 9.7196 7.1883 9.62319 7.2871 9.58773C8.72239 9.06069 9.75057 7.68185 9.75057 6.06546C9.75057 4.44907 8.72239 3.07023 7.2871 2.54319C7.19771 2.51019 7.12476 2.40205 7.12476 2.30776V1.95962C7.12476 1.81848 7.23541 1.73619 7.37178 1.78064C9.18589 2.35971 10.5012 4.06078 10.5012 6.06785C10.4989 8.07014 9.18589 9.76889 7.37178 10.35Z" fill="white"/>
</svg>
