<svg width="16" height="16" viewBox="0 0 16 16" fill="none" xmlns="http://www.w3.org/2000/svg">
<path d="M4.89265 6.72333L7.99997 3.616L11.1088 6.72467L12.9167 4.91667L7.99997 0L3.08479 4.9152L4.89272 6.7232L4.89265 6.72333ZM0 8L1.80806 6.19168L3.61599 7.99962L1.80793 9.80768L0 8ZM4.89265 9.27686L7.99997 12.384L11.1087 9.27539L12.9176 11.0824L12.9167 11.0834L7.99997 16L3.08479 11.0848L3.08223 11.0822L4.89284 9.27667L4.89265 9.27686ZM12.384 8.00077L14.192 6.1927L15.9999 8.00064L14.1919 9.8087L12.384 8.00077Z" fill="#F3BA2F"/>
<path d="M9.83385 7.99873H9.83462L8.00013 6.16406L6.64416 7.51968L6.48839 7.67552L6.16711 7.99687L6.16455 7.99937L6.16711 8.00199L8.00013 9.83531L9.83474 8.00065L9.83564 7.99962L9.83398 7.99873" fill="#F3BA2F"/>
</svg>
