<svg width="20" height="20" viewBox="0 0 20 20" fill="none" xmlns="http://www.w3.org/2000/svg">
<path d="M1.66675 9.16634V7.49967C1.66675 4.58301 3.33341 3.33301 5.83341 3.33301H14.1667C16.6667 3.33301 18.3334 4.58301 18.3334 7.49967V12.4997C18.3334 15.4163 16.6667 16.6663 14.1667 16.6663H10.0001" stroke="white" stroke-width="1.5" stroke-miterlimit="10" stroke-linecap="round" stroke-linejoin="round"/>
<path d="M10.0001 12.0837C11.1507 12.0837 12.0834 11.1509 12.0834 10.0003C12.0834 8.84973 11.1507 7.91699 10.0001 7.91699C8.84949 7.91699 7.91675 8.84973 7.91675 10.0003C7.91675 11.1509 8.84949 12.0837 10.0001 12.0837Z" stroke="white" stroke-width="1.5" stroke-miterlimit="10" stroke-linecap="round" stroke-linejoin="round"/>
<path d="M15.4167 7.91699V12.0837" stroke="white" stroke-width="1.5" stroke-miterlimit="10" stroke-linecap="round" stroke-linejoin="round"/>
<path d="M1.66675 12.917H6.11677C6.6501 12.917 7.08341 13.3503 7.08341 13.8836V14.9503" stroke="white" stroke-width="1.5" stroke-miterlimit="10" stroke-linecap="round" stroke-linejoin="round"/>
<path d="M2.68339 11.9004L1.66675 12.917L2.68339 13.9337" stroke="white" stroke-width="1.5" stroke-miterlimit="10" stroke-linecap="round" stroke-linejoin="round"/>
<path d="M7.08341 17.3175H2.63339C2.10006 17.3175 1.66675 16.8842 1.66675 16.3508V15.2842" stroke="white" stroke-width="1.5" stroke-miterlimit="10" stroke-linecap="round" stroke-linejoin="round"/>
<path d="M6.06787 18.3341L7.08451 17.3175L6.06787 16.3008" stroke="white" stroke-width="1.5" stroke-miterlimit="10" stroke-linecap="round" stroke-linejoin="round"/>
</svg>
