<svg width="20" height="20" viewBox="0 0 20 20" fill="none" xmlns="http://www.w3.org/2000/svg">
<path d="M7.49935 1.66699H12.4993C16.666 1.66699 18.3327 3.33366 18.3327 7.50033V12.5003C18.3327 16.667 16.666 18.3337 12.4993 18.3337H7.49935C3.33268 18.3337 1.66602 16.667 1.66602 12.5003V7.50033C1.66602 3.33366 3.33268 1.66699 7.49935 1.66699Z" stroke="white" stroke-width="1.5" stroke-linecap="round" stroke-linejoin="round"/>
<path d="M7 13L13 7" stroke="white" stroke-width="1.5" stroke-linecap="round" stroke-linejoin="round"/>
<path d="M7.48399 8.64179C8.05009 8.64179 8.50898 8.1829 8.50898 7.61681C8.50898 7.05071 8.05009 6.5918 7.48399 6.5918C6.9179 6.5918 6.45898 7.05071 6.45898 7.61681C6.45898 8.1829 6.9179 8.64179 7.48399 8.64179Z" stroke="white" stroke-width="1.5" stroke-linecap="round" stroke-linejoin="round"/>
<path d="M12.9334 13.4084C13.4995 13.4084 13.9584 12.9495 13.9584 12.3834C13.9584 11.8173 13.4995 11.3584 12.9334 11.3584C12.3673 11.3584 11.9084 11.8173 11.9084 12.3834C11.9084 12.9495 12.3673 13.4084 12.9334 13.4084Z" stroke="white" stroke-width="1.5" stroke-linecap="round" stroke-linejoin="round"/>
</svg>
