<svg width="24" height="24" viewBox="0 0 24 24" fill="none" xmlns="http://www.w3.org/2000/svg">
<path fill-rule="evenodd" clip-rule="evenodd" d="M11.3787 3.30198L11.3777 3.30253L4.54471 6.85752C4.42413 6.92036 4.3499 7.04409 4.3499 7.20039C4.3499 7.35669 4.42398 7.48034 4.54456 7.54318L11.3777 11.0983L11.3788 11.0988C11.7715 11.3009 12.2284 11.3009 12.6211 11.0988L12.6221 11.0983L19.4551 7.54326C19.5758 7.48044 19.6499 7.35676 19.6499 7.20039C19.6499 7.04403 19.5758 6.92034 19.4551 6.85752L12.6221 3.30253L12.6211 3.302C12.2284 3.09986 11.7715 3.09985 11.3787 3.30198ZM10.6901 1.96939C11.5148 1.54406 12.485 1.54406 13.3097 1.96939L13.3121 1.97061L20.1476 5.52693C21.4838 6.22253 21.484 8.17817 20.1477 8.87378L13.3121 12.4302L13.3097 12.4314C12.485 12.8567 11.5148 12.8567 10.6901 12.4314L10.6877 12.4302L3.85225 8.87386C2.51599 8.17825 2.51584 6.22261 3.85209 5.527L10.6901 1.96939Z" fill="#6D7A86"/>
<path fill-rule="evenodd" clip-rule="evenodd" d="M3.3072 11.5945C3.22419 11.6484 3.1499 11.7543 3.1499 11.9131V17.6475C3.1499 18.225 3.46156 18.7363 3.91589 18.9812L3.91723 18.9819L9.63012 22.0176C9.72254 22.0667 9.81216 22.0586 9.89261 22.0063C9.97561 21.9523 10.0499 21.8465 10.0499 21.6877V15.9533C10.0499 15.3758 9.73827 14.8645 9.28396 14.6196L3.56968 11.5832C3.47732 11.5342 3.3876 11.5422 3.3072 11.5945ZM1.6499 11.9131C1.6499 10.5843 3.01447 9.59061 4.27264 10.2581L9.99282 13.2976C10.9551 13.8149 11.5499 14.8471 11.5499 15.9533V21.6877C11.5499 23.0165 10.1853 24.0102 8.92716 23.3427L3.21017 20.3048L3.20699 20.3031C2.24472 19.7858 1.6499 18.7537 1.6499 17.6475V11.9131Z" fill="#6D7A86"/>
<path fill-rule="evenodd" clip-rule="evenodd" d="M19.7272 10.2581C20.9853 9.59061 22.3499 10.5843 22.3499 11.9131V17.6475C22.3499 18.7537 21.7551 19.7858 20.7928 20.3031L20.7896 20.3048L15.0731 23.3425C13.8149 24.0099 12.4499 23.0165 12.4499 21.6877V15.9533C12.4499 14.8471 13.0447 13.8149 14.007 13.2976L14.0102 13.2959L19.7272 10.2581ZM20.4301 11.5832L14.7158 14.6196C14.2615 14.8645 13.9499 15.3758 13.9499 15.9533V21.6877C13.9499 21.8465 14.0242 21.9523 14.1072 22.0063C14.1876 22.0586 14.2773 22.0667 14.3697 22.0176L20.0826 18.9819L20.0839 18.9812C20.5382 18.7363 20.8499 18.225 20.8499 17.6475V11.9131C20.8499 11.7543 20.7756 11.6484 20.6926 11.5945C20.6122 11.5422 20.5225 11.5342 20.4301 11.5832Z" fill="#6D7A86"/>
</svg>
