<svg width="24" height="24" viewBox="0 0 24 24" fill="none" xmlns="http://www.w3.org/2000/svg">
<path fill-rule="evenodd" clip-rule="evenodd" d="M8.97021 1.25C6.39624 1.25 4.39935 1.7602 3.06488 3.09467C1.73042 4.42914 1.22021 6.42603 1.22021 9V15C1.22021 17.574 1.73042 19.5709 3.06488 20.9053C4.39935 22.2398 6.39624 22.75 8.97021 22.75H14.9702C17.5442 22.75 19.5411 22.2398 20.8755 20.9053C22.21 19.5709 22.7202 17.574 22.7202 15V14.1328C22.7268 14.0928 22.7302 14.0518 22.7302 14.01C22.7302 13.9682 22.7268 13.9272 22.7202 13.8872V9C22.7202 6.42603 22.21 4.42914 20.8755 3.09467C19.5411 1.7602 17.5442 1.25 14.9702 1.25H8.97021ZM21.2202 13.26V9C21.2202 6.57397 20.7304 5.07086 19.8149 4.15533C18.8994 3.2398 17.3962 2.75 14.9702 2.75H8.97021C6.54419 2.75 5.04108 3.2398 4.12555 4.15533C3.21001 5.07086 2.72021 6.57397 2.72021 9V11.9475L7.97021 11.93C8.52596 11.93 9.06762 12.1366 9.50276 12.432C9.93808 12.7276 10.33 13.155 10.5366 13.6715L10.5376 13.674L11.4447 15.9657L13.5023 10.7454C13.6467 10.378 13.977 9.86997 14.593 9.8373C15.2068 9.80475 15.5899 10.2724 15.7735 10.6199L16.8141 12.5912C16.8904 12.7363 17.0561 12.9122 17.2913 13.054C17.5266 13.196 17.7589 13.26 17.9202 13.26H21.2202ZM2.72021 13.4475V15C2.72021 17.426 3.21001 18.9291 4.12555 19.8447C5.04108 20.7602 6.54419 21.25 8.97021 21.25H14.9702C17.3962 21.25 18.8994 20.7602 19.8149 19.8447C20.7304 18.9291 21.2202 17.426 21.2202 15V14.76H17.9202C17.4216 14.76 16.9238 14.5841 16.5166 14.3385C16.1095 14.0929 15.72 13.7334 15.4863 13.2888L14.6995 11.7985L12.608 17.105L12.6066 17.1085C12.5197 17.3258 12.3996 17.5436 12.2293 17.7187C12.0557 17.8971 11.7897 18.0675 11.4452 18.0675C11.1007 18.0675 10.8348 17.8971 10.6611 17.7187C10.4908 17.5436 10.3708 17.3258 10.2839 17.1085L10.2829 17.106L9.14386 14.2285L9.14347 14.2276C9.06987 14.0443 8.90193 13.8371 8.66017 13.673C8.41825 13.5087 8.16538 13.4303 7.97127 13.43L7.97021 13.43L2.72021 13.4475Z" fill="#6D7A86"/>
</svg>
