<svg width="24" height="24" viewBox="0 0 24 24" fill="none" xmlns="http://www.w3.org/2000/svg">
<path fill-rule="evenodd" clip-rule="evenodd" d="M12.4721 2.37642C13.4382 1.68107 14.8232 1.75225 16.4909 2.24036C18.9455 2.96231 21.0378 5.0539 21.7597 7.50853C22.2478 9.17624 22.3193 10.5621 21.6239 11.5283C20.9185 12.5085 19.6501 12.7502 18.3202 12.7502H15.0002C13.8838 12.7502 12.8888 12.4696 12.193 11.6972C11.5131 10.9425 11.2502 9.86066 11.2502 8.56016V5.68016C11.2502 4.35027 11.4919 3.08188 12.4721 2.37642ZM13.3483 3.5939C13.0085 3.83844 12.7502 4.41005 12.7502 5.68016V8.56016C12.7502 9.69966 12.9873 10.3378 13.3074 10.6932C13.6115 11.0308 14.1166 11.2502 15.0002 11.2502H18.3202C19.5903 11.2502 20.1619 10.9918 20.4064 10.6521C20.6611 10.2983 20.7922 9.54338 20.3206 7.93164C19.7426 5.96651 18.0342 4.25803 16.0691 3.67984C14.4571 3.20809 13.7021 3.33927 13.3483 3.5939Z" fill="#6D7A86"/>
<path fill-rule="evenodd" clip-rule="evenodd" d="M9.99506 3.86031C10.0778 4.26618 9.81589 4.66228 9.41003 4.74504C5.18128 5.6073 2.1171 9.68037 2.86049 14.3C3.42886 17.7719 6.22936 20.5712 9.69936 21.1297L9.70039 21.1299C14.3377 21.8828 18.4114 18.8016 19.2649 14.5525C19.3464 14.1464 19.7418 13.8833 20.1479 13.9648C20.554 14.0464 20.8171 14.4418 20.7355 14.8479C19.729 19.8587 14.9227 23.4975 9.45997 22.6105C5.35074 21.9486 2.05192 18.6485 1.38002 14.5412L1.37972 14.5394C0.503695 9.09938 4.11938 4.29296 9.11034 3.27528C9.5162 3.19252 9.9123 3.45445 9.99506 3.86031Z" fill="#6D7A86"/>
</svg>
