<svg width="24" height="24" viewBox="0 0 24 24" fill="none" xmlns="http://www.w3.org/2000/svg">
<path fill-rule="evenodd" clip-rule="evenodd" d="M9.1199 1.65039C6.64593 1.65039 4.71904 2.14059 3.42957 3.43006C2.1401 4.71953 1.6499 6.64642 1.6499 9.12039V14.8804C1.6499 17.3544 2.1401 19.2813 3.42957 20.5707C4.71904 21.8602 6.64593 22.3504 9.1199 22.3504H14.8799C17.3539 22.3504 19.2808 21.8602 20.5702 20.5707C21.8597 19.2813 22.3499 17.3544 22.3499 14.8804V9.12039C22.3499 6.64642 21.8597 4.71953 20.5702 3.43006C19.2808 2.14059 17.3539 1.65039 14.8799 1.65039H9.1199ZM3.1499 9.12039C3.1499 6.79436 3.6197 5.36125 4.49023 4.49072C5.36076 3.62019 6.79387 3.15039 9.1199 3.15039H14.8799C17.2059 3.15039 18.639 3.62019 19.5096 4.49072C20.3801 5.36125 20.8499 6.79436 20.8499 9.12039V10.0504H15.0293C15.0216 10.0177 15.0133 9.98502 15.0044 9.95232C14.7249 8.8925 13.8716 8.03979 12.8115 7.76105C11.0027 7.28088 9.3194 8.41221 8.93282 10.0504H3.1499V9.12039ZM3.1499 11.5504V14.8804C3.1499 17.2064 3.6197 18.6395 4.49023 19.5101C5.36076 20.3806 6.79387 20.8504 9.1199 20.8504H14.8799C17.2059 20.8504 18.639 20.3806 19.5096 19.5101C20.3801 18.6395 20.8499 17.2064 20.8499 14.8804V11.5504H15.0076C14.8422 12.1995 14.472 12.7589 13.9799 13.1679V14.7662C13.9799 15.8704 13.0841 16.7662 11.9799 16.7662C10.8757 16.7662 9.97992 15.8704 9.97992 14.7662V13.1679C9.48785 12.7589 9.11768 12.1995 8.95222 11.5504H3.1499ZM10.3499 10.7662C10.3499 9.73163 11.3301 8.91935 12.4273 9.211L12.4295 9.2116C12.9677 9.35287 13.4132 9.79841 13.5545 10.3366L13.5563 10.3435C13.6163 10.5635 13.6236 10.7851 13.5895 10.9968L13.5883 11.0042L13.5873 11.0116C13.5202 11.4879 13.2372 11.8989 12.8344 12.1489L12.4799 12.369V14.7662C12.4799 15.042 12.2557 15.2662 11.9799 15.2662C11.7041 15.2662 11.4799 15.042 11.4799 14.7662V12.369L11.1254 12.1489C10.7226 11.8989 10.4397 11.4879 10.3726 11.0116L10.3705 10.9968L10.3678 10.982C10.3567 10.9211 10.3499 10.8464 10.3499 10.7662Z" fill="#6D7A86"/>
</svg>
