<svg width="16" height="16" viewBox="0 0 16 16" fill="none" xmlns="http://www.w3.org/2000/svg">
<path d="M15.9858 7.99731C15.9858 12.3937 12.422 15.9575 8.02563 15.9575C3.62937 15.9575 0.0654297 12.3937 0.0654297 7.99731C0.0654297 3.60097 3.62937 0.0371094 8.02563 0.0371094C12.422 0.0371094 15.9858 3.60097 15.9858 7.99731Z" fill="#1BA27A"/>
<path d="M11.7616 4.05078H4.22412V5.87048H7.08303V8.54511H8.90273V5.87048H11.7616V4.05078Z" fill="white"/>
<path d="M8.0101 8.83039C5.64512 8.83039 3.72775 8.4561 3.72775 7.99433C3.72775 7.53264 5.64504 7.15827 8.0101 7.15827C10.3751 7.15827 12.2924 7.53264 12.2924 7.99433C12.2924 8.4561 10.3751 8.83039 8.0101 8.83039ZM12.8185 8.13371C12.8185 7.53829 10.6657 7.05566 8.0101 7.05566C5.35458 7.05566 3.20166 7.53829 3.20166 8.13371C3.20166 8.65805 4.87099 9.09491 7.08305 9.1917V13.0312H8.90259V9.19322C11.1317 9.09944 12.8185 8.66076 12.8185 8.13371Z" fill="white"/>
</svg>
