<svg width="17" height="6" viewBox="0 0 17 6" fill="none" xmlns="http://www.w3.org/2000/svg">
<path d="M12.9743 2.99056C12.973 2.46013 13.1824 1.95089 13.5565 1.57487C13.9306 1.19885 14.4388 0.986857 14.9692 0.985518C15.4997 0.984179 16.0089 1.19361 16.3849 1.56773C16.761 1.94186 16.9729 2.45003 16.9743 2.98046C16.9756 3.51089 16.7662 4.02013 16.3921 4.39615C16.0179 4.77217 15.5098 4.98417 14.9793 4.98551C14.4489 4.98684 13.9397 4.77741 13.5637 4.40329C13.1876 4.02917 12.9756 3.52099 12.9743 2.99056ZM6.97432 3.00571C6.97298 2.47528 7.18241 1.96604 7.55653 1.59002C7.93066 1.214 8.43883 1.002 8.96926 1.00066C9.4997 0.999326 10.0089 1.20875 10.385 1.58288C10.761 1.957 10.973 2.46518 10.9743 2.99561C10.9756 3.52604 10.7662 4.03528 10.3921 4.4113C10.018 4.78732 9.50979 4.99931 8.97936 5.00065C8.44893 5.00199 7.93969 4.79256 7.56367 4.41844C7.18766 4.04431 6.97566 3.53614 6.97432 3.00571ZM0.974338 3.02085C0.972999 2.49042 1.18243 1.98119 1.55655 1.60517C1.93068 1.22915 2.43885 1.01715 2.96928 1.01581C3.49971 1.01447 4.00895 1.2239 4.38497 1.59803C4.76099 1.97215 4.97299 2.48033 4.97433 3.01076C4.97566 3.54119 4.76623 4.05043 4.39211 4.42644C4.01799 4.80246 3.50981 5.01446 2.97938 5.0158C2.44895 5.01714 1.93971 4.80771 1.56369 4.43358C1.18767 4.05946 0.975677 3.55129 0.974338 3.02085Z" fill="#494C5D"/>
</svg>
