<svg width="14" height="14" viewBox="0 0 14 14" fill="none" xmlns="http://www.w3.org/2000/svg">
<path fill-rule="evenodd" clip-rule="evenodd" d="M7.07576 0.339568H10.7581C11.9364 0.339568 12.8872 0.789061 13.3618 1.64426C13.8362 2.49899 13.7447 3.59643 13.1744 4.68421L11.2392 8.37074L9.41589 11.8338C8.81829 12.9733 7.96089 13.6663 6.99963 13.6663C6.03829 13.6663 5.18113 12.9738 4.58351 11.8342L0.824902 4.67788C0.254262 3.58943 0.164728 2.49169 0.639942 1.63731C1.11523 0.782801 2.06546 0.333008 3.2411 0.333008H6.99963C7.02556 0.333008 7.05096 0.335254 7.07576 0.339568ZM7.46469 12.5804C7.84449 12.4147 8.24656 12.0351 8.60229 11.3567L10.4258 7.89321L12.3608 4.20711C12.7287 3.50539 12.7974 2.91927 12.6898 2.47919L7.46536 6.52294L7.46469 12.5804ZM6.53443 12.5804L6.53503 6.52301L1.30948 2.47937C1.20344 2.91886 1.27251 3.50262 1.63841 4.20055L5.39669 11.3563C5.75243 12.0347 6.15469 12.4146 6.53443 12.5804ZM10.7581 1.32345C11.3692 1.32345 11.8232 1.46673 12.1391 1.68589L7.00016 5.66634L1.85678 1.68355C2.17298 1.4619 2.6283 1.31689 3.2411 1.31689H6.92343C6.94823 1.32121 6.97369 1.32345 6.99963 1.32345H10.7581Z" fill="url(#paint0_linear_2286_3845)"/>
<defs>
<linearGradient id="paint0_linear_2286_3845" x1="-13.3796" y1="5.45173" x2="4.93688" y2="22.7375" gradientUnits="userSpaceOnUse">
<stop stop-color="#FD371F"/>
<stop offset="1" stop-color="#FF844B"/>
</linearGradient>
</defs>
</svg>
